<?xml version="1.0" encoding="UTF-8" standalone="no"?>
<!-- Created with Inkscape (http://www.inkscape.org/) -->

<svg
   width="330.58051mm"
   height="326.711mm"
   viewBox="0 0 330.58051 326.711"
   version="1.1"
   id="svg5"
   sodipodi:docname="icon.svg"
   inkscape:version="1.1.2 (b8e25be8, 2022-02-05)"
   xmlns:inkscape="http://www.inkscape.org/namespaces/inkscape"
   xmlns:sodipodi="http://sodipodi.sourceforge.net/DTD/sodipodi-0.dtd"
   xmlns:xlink="http://www.w3.org/1999/xlink"
   xmlns="http://www.w3.org/2000/svg"
   xmlns:svg="http://www.w3.org/2000/svg">
  <sodipodi:namedview
     id="namedview7"
     pagecolor="#ffffff"
     bordercolor="#666666"
     borderopacity="1.0"
     inkscape:pageshadow="2"
     inkscape:pageopacity="0.0"
     inkscape:pagecheckerboard="0"
     inkscape:document-units="mm"
     showgrid="false"
     inkscape:zoom="0.1978466"
     inkscape:cx="207.23126"
     inkscape:cy="588.84005"
     inkscape:window-width="1293"
     inkscape:window-height="723"
     inkscape:window-x="0"
     inkscape:window-y="23"
     inkscape:window-maximized="0"
     inkscape:current-layer="layer1"
     fit-margin-top="0"
     fit-margin-left="0"
     fit-margin-right="0"
     fit-margin-bottom="0"
     inkscape:snap-bbox="true"
     inkscape:object-paths="true"
     inkscape:snap-intersection-paths="false"
     inkscape:snap-smooth-nodes="true"
     inkscape:snap-nodes="true"
     inkscape:bbox-paths="true"
     inkscape:bbox-nodes="true"
     inkscape:snap-bbox-edge-midpoints="true"
     inkscape:snap-bbox-midpoints="true" />
  <defs
     id="defs2">
    <linearGradient
       inkscape:collect="always"
       id="linearGradient26921">
      <stop
         style="stop-color:#0000ff;stop-opacity:1;"
         offset="0"
         id="stop26917" />
      <stop
         style="stop-color:#0000ff;stop-opacity:0;"
         offset="1"
         id="stop26919" />
    </linearGradient>
    <linearGradient
       inkscape:collect="always"
       id="linearGradient26565">
      <stop
         style="stop-color:#0000ff;stop-opacity:1;"
         offset="0"
         id="stop26561" />
      <stop
         style="stop-color:#0000ff;stop-opacity:0;"
         offset="1"
         id="stop26563" />
    </linearGradient>
    <linearGradient
       inkscape:collect="always"
       id="linearGradient26425">
      <stop
         style="stop-color:#00ffff;stop-opacity:1;"
         offset="0"
         id="stop26421" />
      <stop
         style="stop-color:#00ffff;stop-opacity:0;"
         offset="1"
         id="stop26423" />
    </linearGradient>
    <linearGradient
       inkscape:collect="always"
       id="linearGradient25476">
      <stop
         style="stop-color:#ffff00;stop-opacity:0;"
         offset="0"
         id="stop25474" />
      <stop
         style="stop-color:#ffff00;stop-opacity:1;"
         offset="1"
         id="stop25472" />
    </linearGradient>
    <linearGradient
       inkscape:collect="always"
       id="linearGradient24445">
      <stop
         style="stop-color:#0000ff;stop-opacity:1"
         offset="0"
         id="stop24441" />
      <stop
         style="stop-color:#00ffff;stop-opacity:0;"
         offset="1"
         id="stop24443" />
    </linearGradient>
    <linearGradient
       inkscape:collect="always"
       id="linearGradient12572">
      <stop
         style="stop-color:#ff0000;stop-opacity:1;"
         offset="0"
         id="stop12568" />
      <stop
         style="stop-color:#ff0000;stop-opacity:0;"
         offset="1"
         id="stop12570" />
    </linearGradient>
    <rect
       x="144.35394"
       y="187.66013"
       width="180.44243"
       height="635.15735"
       id="rect8026" />
    <linearGradient
       inkscape:collect="always"
       xlink:href="#linearGradient12572"
       id="linearGradient19013"
       gradientUnits="userSpaceOnUse"
       gradientTransform="matrix(-3.7795245,5.6918216e-8,1.3699011e-7,3.7795304,8.252305e-6,3.3775878e-6)"
       x1="-205.47186"
       y1="93.452721"
       x2="-125.8104"
       y2="238.13031"
       spreadMethod="reflect" />
    <linearGradient
       inkscape:collect="always"
       xlink:href="#linearGradient12572"
       id="linearGradient23383"
       gradientUnits="userSpaceOnUse"
       gradientTransform="matrix(-3.8015158,5.8463653e-8,1.3778719e-7,3.8821519,-0.03388024,0.019843)"
       x1="-205.47186"
       y1="93.452721"
       x2="-125.8104"
       y2="238.13031"
       spreadMethod="reflect" />
    <linearGradient
       inkscape:collect="always"
       xlink:href="#linearGradient24445"
       id="linearGradient24447"
       x1="162.1806"
       y1="46.743515"
       x2="123.53867"
       y2="315.19424"
       gradientUnits="userSpaceOnUse"
       gradientTransform="matrix(1.0058185,0,0,1.0271519,0.12744716,0.03328354)" />
    <linearGradient
       inkscape:collect="always"
       xlink:href="#linearGradient25476"
       id="linearGradient25478"
       x1="112.54529"
       y1="312.90515"
       x2="162.98239"
       y2="46.743515"
       gradientUnits="userSpaceOnUse"
       gradientTransform="matrix(1.0058185,0,0,1.0271519,0.12744716,0.03328354)" />
    <radialGradient
       inkscape:collect="always"
       xlink:href="#linearGradient26425"
       id="radialGradient26427"
       cx="628.88199"
       cy="890.49708"
       fx="628.88199"
       fy="890.49708"
       r="525.46691"
       gradientTransform="matrix(1.0058185,0,0,0.59598494,-0.03388855,383.97275)"
       gradientUnits="userSpaceOnUse" />
    <linearGradient
       inkscape:collect="always"
       xlink:href="#linearGradient26565"
       id="linearGradient26567"
       x1="-139.13211"
       y1="-269.81378"
       x2="288.70032"
       y2="-136.01747"
       gradientUnits="userSpaceOnUse"
       gradientTransform="matrix(1.0222169,-0.00896423,-0.00902765,1.0107536,-0.03247116,-0.12783633)" />
    <linearGradient
       inkscape:collect="always"
       xlink:href="#linearGradient26921"
       id="linearGradient26927"
       x1="-19.085417"
       y1="8.259388"
       x2="302.77652"
       y2="319.24741"
       gradientUnits="userSpaceOnUse"
       gradientTransform="matrix(1.0058185,0,0,1.0271519,0.12744716,0.03328354)" />
  </defs>
  <g
     inkscape:label="图层 1"
     inkscape:groupmode="layer"
     id="layer1"
     transform="translate(23.444659,1.0325)">
    <text
       xml:space="preserve"
       transform="scale(0.26458333)"
       id="text8024"
       style="font-style:normal;font-weight:normal;font-size:40px;line-height:1.25;font-family:sans-serif;white-space:pre;shape-inside:url(#rect8026);fill:#000000;fill-opacity:1;stroke:none" />
    <g
       id="g27283"
       inkscape:export-filename="/Users/LibraYe/OneDrive/Github_Desktop/hexo_at_github/themes/next/source/images/favicon-32x32-next.png"
       inkscape:export-xdpi="2.5403295"
       inkscape:export-ydpi="2.5403295"
       transform="matrix(0.99421512,0,0,0.97356584,-0.12670989,-0.03240372)">
      <path
         id="text1904"
         style="font-style:normal;font-variant:normal;font-weight:normal;font-stretch:normal;font-size:229.889px;line-height:1.25;font-family:'Geeza Pro';-inkscape-font-specification:'Geeza Pro';fill:url(#linearGradient23383);fill-opacity:1;fill-rule:nonzero;stroke:none;stroke-width:0.815849;stroke-miterlimit:4;stroke-dasharray:none;stroke-opacity:1"
         d="m 504.31445,264.75781 -95.76757,58.07813 130.95898,659.38476 76.54297,-46.41992 -38.33594,-182.66406 -15.27148,-75.08789 -66.13868,-322.59571 255.86133,207.53907 59.16406,48.46875 144.26172,118.42383 72.91406,-44.21875 z"
         transform="matrix(0.26458333,0,0,0.26458333,-23.444659,-1.0325)" />
      <ellipse
         style="fill:none;fill-opacity:1;fill-rule:nonzero;stroke:url(#linearGradient26927);stroke-width:4;stroke-miterlimit:4;stroke-dasharray:none;stroke-opacity:1"
         id="path15564"
         cx="143.22617"
         cy="162.323"
         rx="141.3165"
         ry="162.323" />
      <ellipse
         style="fill:none;fill-opacity:1;fill-rule:nonzero;stroke:url(#linearGradient26567);stroke-width:3.09898;stroke-linecap:round;stroke-linejoin:bevel;stroke-miterlimit:4;stroke-dasharray:none;stroke-opacity:1;paint-order:stroke fill markers"
         id="path15564-6"
         cx="74.784111"
         cy="-202.91563"
         rx="150.82271"
         ry="162.29369"
         transform="matrix(-0.47854301,0.87806412,-0.87540304,-0.48339375,0,0)" />
      <path
         style="fill:#00ff00;fill-opacity:1;fill-rule:nonzero;stroke:none;stroke-width:2.84376;stroke-linecap:round;stroke-linejoin:bevel;stroke-miterlimit:4;stroke-dasharray:68.2504, 68.2504;stroke-dashoffset:0;stroke-opacity:1;paint-order:stroke fill markers"
         id="path17269"
         d="m 46.545711,206.7283 c -1.079599,1.79946 -1.960103,3.61775 -2.574044,5.49136 -0.693401,1.91751 -1.076149,3.8097 -1.010215,5.76846 0.446572,2.42571 2.089336,4.67587 3.548771,6.93697 1.963518,3.05465 4.467851,5.99001 8.524407,8.25892 6.867169,3.15427 15.793546,2.57844 24.017772,2.54888 14.433322,-0.18684 28.463348,-2.36394 42.618488,-3.72601 74.85306,-7.20273 -6.48761,1.73228 84.9041,-8.81038 0,0 0.16299,-0.0722 0.16299,-0.0722 v 0 c -16.28816,1.87912 -32.51433,3.95299 -48.86448,5.63737 -24.24671,2.49788 -48.83026,4.31017 -73.460304,4.70316 -7.508422,-0.27933 -15.388097,-0.37027 -21.714074,-3.05385 -4.21874,-2.23418 -6.648441,-4.84117 -8.442922,-7.99461 -1.270469,-2.26603 -2.488199,-4.57447 -2.860547,-6.96056 -0.100046,-1.91377 0.336461,-3.75296 0.981446,-5.62809 0.621755,-1.90675 1.532347,-3.78207 3.170866,-5.48461 0,0 -9.002254,2.38522 -9.002254,2.38522 z" />
      <path
         style="fill:#00ff00;fill-opacity:1;fill-rule:nonzero;stroke:none;stroke-width:4;stroke-linecap:round;stroke-linejoin:bevel;stroke-miterlimit:4;stroke-dasharray:96.0001, 96.0001;stroke-dashoffset:0;stroke-opacity:1;paint-order:stroke fill markers"
         id="path17271"
         d="m 37.110031,253.845 c 14.019564,1.79091 28.029672,3.49387 42.119851,4.64603 3.660859,0.0851 7.323899,0.4074 10.982581,0.25517 11.392877,-0.47404 21.661777,-2.33123 32.890607,-4.69449 12.95232,-2.72598 33.31723,-7.93379 45.83239,-11.55414 8.21582,-2.37665 16.33887,-5.06302 24.50831,-7.59453 30.76956,-10.8009 15.86271,-5.18926 44.7543,-16.74497 0,0 0.17294,-0.13598 0.17294,-0.13598 v 0 c -28.89081,11.55672 -13.98433,5.94461 -44.75322,16.74635 -35.38974,10.96763 -71.82667,22.9194 -109.386146,20.15993 -12.886959,-1.38099 -26.093215,-2.6623 -38.343135,-7.13842 0,0 -8.778478,6.05505 -8.778478,6.05505 z" />
      <path
         style="fill:#00ff00;fill-opacity:1;fill-rule:nonzero;stroke:none;stroke-width:4;stroke-linecap:round;stroke-linejoin:bevel;stroke-miterlimit:4;stroke-dasharray:96.0001, 96.0001;stroke-dashoffset:0;stroke-opacity:1;paint-order:stroke fill markers"
         id="path17273"
         d="m 67.789825,274.43925 c 16.43008,2.22967 32.971825,1.70487 49.468895,0.7694 32.47804,-3.9081 63.72849,-14.24422 93.83618,-26.72691 5.99549,-2.48574 11.89589,-5.19491 17.84383,-7.79237 5.39949,-2.87286 10.79898,-5.74572 16.19847,-8.61858 0,0 1.3506,-1.08664 1.3506,-1.08664 v 0 c -5.53987,2.9897 -11.07974,5.97941 -16.61961,8.96912 -6.08072,2.7037 -12.10797,5.531 -18.24216,8.1111 -28.90584,12.15811 -59.11111,22.10061 -90.57001,24.36293 -14.91287,0.28975 -30.27243,0.63495 -44.67972,-3.86854 0,0 -8.586475,5.88049 -8.586475,5.88049 z" />
      <path
         style="fill:url(#linearGradient24447);fill-opacity:1;stroke:none;stroke-width:0.264583px;stroke-linecap:butt;stroke-linejoin:miter;stroke-opacity:1"
         d="M 119.2996,258.84672 162.18061,46.743514 130.6721,251.9498 Z"
         id="path23645"
         sodipodi:nodetypes="cccc" />
      <path
         style="fill:url(#linearGradient25478);fill-opacity:1;stroke:none;stroke-width:0.264583px;stroke-linecap:butt;stroke-linejoin:miter;stroke-opacity:1"
         d="M 130.6721,251.9498 162.18061,46.743514 139.55159,246.56478 Z"
         id="path24047"
         sodipodi:nodetypes="cccc" />
      <path
         style="fill:none;stroke:none;stroke-width:0.264583px;stroke-linecap:butt;stroke-linejoin:miter;stroke-opacity:1"
         d="m 1.9096678,162.323 c 15.8555742,-11.11956 30.8440302,-5.62473 48.5228312,-7.39261 13.002498,-1.30025 36.829339,-7.05896 43.779056,6.84048 3.89295,7.7859 -10.01209,11.8156 -12.312859,16.41714 -0.644927,1.28986 -0.568163,2.90439 -1.368096,4.10429 -0.366091,0.54914 -2.524996,0.42239 -1.368095,2.73619 0.57684,1.15368 2.02071,1.66297 2.736191,2.73619 1.131277,1.69691 1.294093,4.03029 2.736192,5.47238 8.841454,8.84146 22.294442,4.73251 32.834292,6.84048 9.94792,1.98959 18.49643,0.73097 28.73001,0 5.0036,-0.3574 10.05759,0.49915 15.04905,0 19.64439,-1.96444 39.25138,-5.59834 58.8281,-8.20857 39.59451,-5.27927 -14.32341,3.89696 23.25763,-6.84048 2.63091,-0.75169 5.48595,0.27226 8.20857,0 7.35647,-0.73565 5.55381,-2.76334 13.68097,-5.47238 5.74886,-1.91629 13.15212,-1.73599 19.15332,-2.73619 0.89966,-0.14995 1.92042,-0.40789 2.73618,0 0.40791,0.20394 0.0796,1.81712 0,1.36809 -0.93527,-5.27502 -1.71357,-10.57668 -2.57034,-15.86501"
         id="path26263" />
      <path
         style="fill:url(#radialGradient26427);fill-opacity:1;fill-rule:nonzero;stroke:none;stroke-width:78.172;stroke-linecap:round;stroke-linejoin:bevel;stroke-miterlimit:4;stroke-dasharray:1876.13, 1876.13;stroke-dashoffset:0;stroke-opacity:1;paint-order:stroke fill markers"
         d="m 610.14907,1194.0878 c -7.10979,-1.2438 -30.37819,-4.824 -51.70755,-7.956 -80.82894,-11.8689 -167.58781,-46.6676 -246.96828,-99.058 -60.4757,-39.9135 -96.31106,-84.8153 -140.79003,-176.41046 C 128.49939,823.79454 103.4841,725.20029 103.43478,645.6131 l -0.0197,-31.75578 21.9757,-9.00598 c 16.29368,-6.6774 48.71469,-10.38838 125.39081,-14.3525 56.8783,-2.94058 114.24344,-5.1333 127.47808,-4.87271 29.47899,0.58045 54.50707,12.81985 62.61829,30.62203 5.67816,12.4622 4.44329,14.78563 -18.41801,34.65388 -13.47732,11.71285 -27.83897,27.74454 -31.91476,35.62599 -6.91811,13.37766 -6.39695,15.83177 7.84283,36.93112 17.78755,26.35615 23.00562,29.07171 64.18292,33.40169 l 30.81292,3.24012 11.60429,56.8783 c 6.38235,31.28307 11.71296,58.62343 11.84579,60.75637 0.36511,5.86302 -154.69121,4.59122 -176.43145,-1.44712 -20.58981,-5.71881 -48.80381,-33.88284 -53.77168,-53.67642 -1.77318,-7.06491 0.55169,-19.29973 5.47731,-28.82484 4.707,-9.10233 7.67406,-17.43381 6.59348,-18.5144 -1.08059,-1.08059 -10.34985,0.35053 -20.59834,3.18029 -18.4539,5.09536 -29.90705,22.71865 -29.90705,46.01883 0,17.2729 28.1473,52.15872 51.01591,63.22922 23.72253,11.48388 23.88087,11.48588 201.96317,2.55663 15.88677,-0.79659 18.16088,0.82953 22.09261,15.7976 2.41059,9.17708 9.04914,19.18289 14.75232,22.23514 5.70317,3.05225 8.98004,7.7976 7.28193,10.54521 -1.69813,2.74762 -5.25355,3.65697 -7.90096,2.02079 -2.64741,-1.63619 -4.81347,1.56717 -4.81347,7.11857 0,14.51604 -9.02471,16.37519 -79.27691,16.33158 -64.68447,-0.0403 -106.27669,-4.81655 -162.17635,-18.62413 -31.32882,-7.73841 -32.38905,-7.65373 -47.91781,3.82717 -11.0759,8.18877 -13.89801,12.81956 -9.32834,15.30683 3.60347,1.96139 46.66809,7.67419 95.69914,12.69513 76.32648,7.81608 96.66395,8.21799 141.41235,2.79456 28.74574,-3.48393 55.52606,-7.58581 59.51183,-9.11529 4.40993,-1.69225 7.24685,0.55731 7.24685,5.74643 0,7.29329 3.18019,6.71274 21.97571,-4.01172 12.08664,-6.89647 39.427,-16.5992 60.75637,-21.56163 21.32936,-4.96244 40.99115,-11.05215 43.69287,-13.53272 6.39664,-5.87302 5.34015,-5.75132 -28.18061,3.24603 -34.11119,9.15583 -35.98836,9.2394 -25.34249,1.12825 4.95901,-3.77834 9.31527,-17.20765 10.88609,-33.55915 1.44027,-14.99308 3.63696,-28.27842 4.88151,-29.52296 1.24449,-1.24454 30.08495,-5.00089 64.08985,-8.34745 34.00485,-3.34655 65.31728,-8.1262 69.58316,-10.62143 5.43027,-3.17633 3.87972,-3.78473 -5.17076,-2.02887 -20.34713,3.9475 -125.63197,13.33616 -127.59039,11.37774 -0.9691,-0.96913 1.01124,-25.39946 4.40083,-54.28961 l 6.16292,-52.52756 h 36.39415 c 20.01677,0 84.15895,-6.88809 142.53811,-15.30687 97.03428,-13.99318 141.32123,-19.70562 159.44933,-20.56685 3.72273,-0.17684 5.4706,-2.42174 3.88416,-4.98863 -4.01292,-6.49307 25.59061,-16.01595 49.78851,-16.01595 11.0646,0 29.2923,-4.68068 40.506,-10.40151 11.2138,-5.72082 34.6754,-12.35532 52.1369,-14.74333 l 31.7482,-4.34184 -3.3627,32.82144 c -13.403,130.82159 -83.8283,274.91557 -181.26959,370.88761 -64.34782,63.3775 -110.74469,88.1712 -199.27416,106.4889 -30.19633,6.2479 -138.58735,11.3658 -160.2934,7.5685 z m 20.68302,-163.9697 c 109.36585,-26.2027 264.17696,-82.73239 353.09186,-128.93256 65.05275,-33.80137 41.96095,-28.15354 -33.18735,8.11702 -124.84596,60.2573 -262.33617,104.03394 -368.47604,117.32214 -55.25918,6.9182 -152.74981,4.0762 -185.34587,-5.4031 -17.18071,-4.9963 -21.39305,-4.2205 -37.86782,6.9744 -12.44528,8.4568 -16.28794,13.5894 -11.69346,15.6189 3.76381,1.6625 56.87035,2.1876 118.01452,1.1669 96.8611,-1.617 118.1599,-3.5303 165.46416,-14.8637 z M 819.56464,894.52627 c 75.67399,-25.23225 164.21174,-59.50119 170.6349,-66.04502 3.49812,-3.56385 1.82549,-3.98574 -5.17075,-1.30423 -103.27693,39.58385 -168.5847,62.49171 -230.09859,80.71115 -41.23677,12.21367 -77.12734,24.03693 -79.75682,26.27389 -6.83807,5.81735 77.52838,-17.34147 144.39126,-39.63579 z m 36.19528,-44.13636 c 9.77402,-2.61261 3.07939,-3.08917 -18.09764,-1.28829 -18.48545,1.57198 -34.57942,3.71319 -35.76441,4.75823 -3.92072,3.45774 38.06369,0.75299 53.86205,-3.46994 z"
         id="path26382"
         transform="matrix(0.26458333,0,0,0.26458333,-23.444659,-1.0325)" />
    </g>
  </g>
</svg>
