<?xml version="1.0" encoding="UTF-8" standalone="no"?>
<!-- Created with Inkscape (http://www.inkscape.org/) -->

<svg
   width="330.58051mm"
   height="326.711mm"
   viewBox="0 0 330.58051 326.711"
   version="1.1"
   id="svg5"
   sodipodi:docname="logo.svg"
   inkscape:version="1.1.2 (b8e25be8, 2022-02-05)"
   inkscape:export-filename="/Users/LibraYe/OneDrive/Github_Desktop/hexo_at_github/themes/next/source/images/logo.png"
   inkscape:export-xdpi="14.29"
   inkscape:export-ydpi="14.29"
   xmlns:inkscape="http://www.inkscape.org/namespaces/inkscape"
   xmlns:sodipodi="http://sodipodi.sourceforge.net/DTD/sodipodi-0.dtd"
   xmlns:xlink="http://www.w3.org/1999/xlink"
   xmlns="http://www.w3.org/2000/svg"
   xmlns:svg="http://www.w3.org/2000/svg">
  <sodipodi:namedview
     id="namedview7"
     pagecolor="#ffffff"
     bordercolor="#666666"
     borderopacity="1.0"
     inkscape:pageshadow="2"
     inkscape:pageopacity="0.0"
     inkscape:pagecheckerboard="0"
     inkscape:document-units="mm"
     showgrid="false"
     inkscape:zoom="0.24197693"
     inkscape:cx="648.82217"
     inkscape:cy="688.08211"
     inkscape:window-width="1293"
     inkscape:window-height="723"
     inkscape:window-x="0"
     inkscape:window-y="23"
     inkscape:window-maximized="0"
     inkscape:current-layer="layer1"
     fit-margin-top="0"
     fit-margin-left="0"
     fit-margin-right="0"
     fit-margin-bottom="0"
     inkscape:snap-bbox="true"
     inkscape:object-paths="true"
     inkscape:snap-intersection-paths="false"
     inkscape:snap-smooth-nodes="true"
     inkscape:snap-nodes="true"
     inkscape:bbox-paths="true"
     inkscape:bbox-nodes="true"
     inkscape:snap-bbox-edge-midpoints="true"
     inkscape:snap-bbox-midpoints="true" />
  <defs
     id="defs2">
    <linearGradient
       inkscape:collect="always"
       id="linearGradient4347">
      <stop
         style="stop-color:#00c8c8;stop-opacity:1;"
         offset="0"
         id="stop4343" />
      <stop
         style="stop-color:#00c8c8;stop-opacity:0;"
         offset="1"
         id="stop4345" />
    </linearGradient>
    <linearGradient
       inkscape:collect="always"
       id="linearGradient26921">
      <stop
         style="stop-color:#0000ff;stop-opacity:1;"
         offset="0"
         id="stop26917" />
      <stop
         style="stop-color:#0000ff;stop-opacity:0;"
         offset="1"
         id="stop26919" />
    </linearGradient>
    <linearGradient
       inkscape:collect="always"
       id="linearGradient26565">
      <stop
         style="stop-color:#0000ff;stop-opacity:1;"
         offset="0"
         id="stop26561" />
      <stop
         style="stop-color:#0000ff;stop-opacity:0;"
         offset="1"
         id="stop26563" />
    </linearGradient>
    <linearGradient
       inkscape:collect="always"
       id="linearGradient25476">
      <stop
         style="stop-color:#ffff00;stop-opacity:0;"
         offset="0"
         id="stop25474" />
      <stop
         style="stop-color:#ffff00;stop-opacity:1;"
         offset="1"
         id="stop25472" />
    </linearGradient>
    <linearGradient
       inkscape:collect="always"
       id="linearGradient24445">
      <stop
         style="stop-color:#0000ff;stop-opacity:1"
         offset="0"
         id="stop24441" />
      <stop
         style="stop-color:#00ffff;stop-opacity:0;"
         offset="1"
         id="stop24443" />
    </linearGradient>
    <linearGradient
       inkscape:collect="always"
       id="linearGradient12572">
      <stop
         style="stop-color:#ff0000;stop-opacity:1;"
         offset="0"
         id="stop12568" />
      <stop
         style="stop-color:#ff0000;stop-opacity:0;"
         offset="1"
         id="stop12570" />
    </linearGradient>
    <rect
       x="144.35394"
       y="187.66013"
       width="180.44243"
       height="635.15735"
       id="rect8026" />
    <linearGradient
       inkscape:collect="always"
       xlink:href="#linearGradient12572"
       id="linearGradient19013"
       gradientUnits="userSpaceOnUse"
       gradientTransform="matrix(-3.7795245,5.6918216e-8,1.3699011e-7,3.7795304,8.252305e-6,3.3775878e-6)"
       x1="-205.47186"
       y1="93.452721"
       x2="-125.8104"
       y2="238.13031"
       spreadMethod="reflect" />
    <linearGradient
       inkscape:collect="always"
       xlink:href="#linearGradient12572"
       id="linearGradient23383"
       gradientUnits="userSpaceOnUse"
       gradientTransform="matrix(-0.99997413,1.5059593e-8,3.624439e-8,0.99999964,-22.464974,-10.735234)"
       x1="-205.47186"
       y1="93.452721"
       x2="-125.8104"
       y2="238.13031"
       spreadMethod="reflect" />
    <linearGradient
       inkscape:collect="always"
       xlink:href="#linearGradient24445"
       id="linearGradient24447"
       x1="162.1806"
       y1="46.743515"
       x2="123.53867"
       y2="315.19424"
       gradientUnits="userSpaceOnUse"
       gradientTransform="matrix(0.99997494,0,0,0.99999884,0.979088,-9.7027359)" />
    <linearGradient
       inkscape:collect="always"
       xlink:href="#linearGradient25476"
       id="linearGradient25478"
       x1="112.54529"
       y1="312.90515"
       x2="162.98239"
       y2="46.743515"
       gradientUnits="userSpaceOnUse"
       gradientTransform="matrix(0.99997494,0,0,0.99999884,0.979088,-9.7027359)" />
    <linearGradient
       inkscape:collect="always"
       xlink:href="#linearGradient26565"
       id="linearGradient26567"
       x1="-139.13211"
       y1="-269.81378"
       x2="288.70032"
       y2="-136.01747"
       gradientUnits="userSpaceOnUse"
       gradientTransform="matrix(1.000062,-0.00887946,-0.00884199,1.0000491,1.9609463e-4,4.1463056e-4)" />
    <linearGradient
       inkscape:collect="always"
       xlink:href="#linearGradient26921"
       id="linearGradient26927"
       x1="-19.085417"
       y1="8.259388"
       x2="302.77652"
       y2="319.24741"
       gradientUnits="userSpaceOnUse"
       gradientTransform="matrix(0.99997494,0,0,0.99999884,-4.6009686e-4,-2.5855684e-5)" />
    <radialGradient
       inkscape:collect="always"
       xlink:href="#linearGradient4347"
       id="radialGradient4349"
       cx="624.06717"
       cy="867.11247"
       fx="624.06717"
       fy="867.11247"
       r="521.13873"
       gradientTransform="matrix(0.99997494,0,0,0.5694935,4.8249411e-4,373.29645)"
       gradientUnits="userSpaceOnUse" />
  </defs>
  <g
     inkscape:groupmode="layer"
     id="layer2"
     inkscape:label="图层 2"
     style="display:inline" />
  <g
     inkscape:label="图层 1"
     inkscape:groupmode="layer"
     id="layer1"
     transform="translate(23.444659,1.0325)">
    <text
       xml:space="preserve"
       transform="scale(0.26458333)"
       id="text8024"
       style="font-style:normal;font-weight:normal;font-size:40px;line-height:1.25;font-family:sans-serif;white-space:pre;shape-inside:url(#rect8026);fill:#000000;fill-opacity:1;stroke:none" />
    <g
       id="g4406"
       transform="matrix(1.0000251,0,0,1.0000012,4.6010841e-4,2.5855716e-5)"
       inkscape:export-filename="/Users/LibraYe/OneDrive/Github_Desktop/hexo_at_github/themes/next/source/uploads/airdip.png"
       inkscape:export-xdpi="15.875001"
       inkscape:export-ydpi="15.875001">
      <path
         style="display:inline;fill:url(#radialGradient4349);fill-opacity:1;stroke:none;stroke-width:62.8973;stroke-linecap:round;stroke-linejoin:bevel;stroke-opacity:0.3;paint-order:stroke fill markers"
         d="M 611.57779,1162.3587 C 506.78782,1155.1026 394.49218,1116.7228 305.7889,1057.8479 261.4836,1028.4411 210.05497,963.28523 172.72528,889.26709 135.94434,816.33701 112.2007,726.76196 105.65676,636.24498 l -2.72832,-37.73871 22.38276,-9.68687 c 19.79821,-8.56832 32.95159,-10.18328 113.91141,-13.98589 142.21432,-6.6797 159.77774,-6.31512 176.77409,3.66945 7.98533,4.691 17.34621,13.56768 20.80197,19.72596 7.76916,13.84491 4.28505,20.40343 -21.15305,39.81869 -10.08044,7.69375 -21.70078,21.03034 -25.82297,29.63688 l -7.4949,15.64825 13.31448,19.72832 c 17.26525,25.58224 37.88764,35.19517 75.76546,35.31735 15.5792,0.0503 41.05726,2.06672 56.61788,4.48104 46.42608,7.20325 188.90191,-1.4081 308.21345,-18.62867 56.0613,-8.09148 110.20258,-15.8487 120.31395,-17.23826 10.99538,-1.51103 16.31619,-3.80466 13.23858,-5.70672 -7.21137,-4.45688 27.83711,-13.71957 54.78255,-14.47804 14.0909,-0.39665 29.8326,-4.53283 44.6469,-11.73112 12.9791,-6.30654 34.3733,-12.35945 49.4335,-13.98588 l 26.5514,-2.8674 -3.0144,28.14708 c -10.2033,95.27725 -55.8688,210.53856 -115.4191,291.32195 -51.20056,69.45641 -148.10823,147.71121 -203.80179,164.57391 -57.87984,17.5246 -138.21042,25.1598 -211.39282,20.0924 z"
         id="path1623"
         transform="matrix(0.26458333,0,0,0.26458333,-23.444659,-1.0325)" />
      <ellipse
         style="fill:none;fill-opacity:1;fill-rule:nonzero;stroke:url(#linearGradient26927);stroke-width:3.93535;stroke-miterlimit:4;stroke-dasharray:none;stroke-opacity:1"
         id="path15564"
         cx="142.2709"
         cy="157.99973"
         rx="140.49899"
         ry="158.03212" />
      <ellipse
         style="fill:none;fill-opacity:1;fill-rule:nonzero;stroke:url(#linearGradient26567);stroke-width:3.04898;stroke-linecap:round;stroke-linejoin:bevel;stroke-miterlimit:4;stroke-dasharray:none;stroke-opacity:1;paint-order:stroke fill markers"
         id="path15564-6"
         cx="73.195534"
         cy="-200.64404"
         rx="147.55484"
         ry="160.57802"
         transform="matrix(-0.48631158,0.87378547,-0.87963795,-0.47564386,0,0)" />
      <g
         id="g4151"
         transform="translate(-0.97955,9.70271)">
        <path
           id="text1904"
           style="font-style:normal;font-variant:normal;font-weight:normal;font-stretch:normal;font-size:229.889px;line-height:1.25;font-family:'Geeza Pro';-inkscape-font-specification:'Geeza Pro';fill:url(#linearGradient23383);fill-opacity:1;fill-rule:nonzero;stroke:none;stroke-width:0.212371;stroke-miterlimit:4;stroke-dasharray:none;stroke-opacity:1"
           d="m 113.05076,61.98088 -25.191942,14.9603 34.449142,169.85043 20.13483,-11.95727 -10.08437,-47.05231 -4.0172,-19.34183 -17.39797,-83.097181 67.30503,53.459821 15.56327,12.48503 37.94844,30.50471 19.18025,-11.39028 z" />
        <path
           style="fill:url(#linearGradient24447);fill-opacity:1;stroke:none;stroke-width:0.260306px;stroke-linecap:butt;stroke-linejoin:miter;stroke-opacity:1"
           d="M 122.30796,246.79161 164.9409,40.295199 133.61467,240.077 Z"
           id="path23645"
           sodipodi:nodetypes="cccc" />
        <path
           style="fill:url(#linearGradient25478);fill-opacity:1;stroke:none;stroke-width:0.260306px;stroke-linecap:butt;stroke-linejoin:miter;stroke-opacity:1"
           d="M 133.61467,240.077 164.9409,40.295199 142.44279,234.83433 Z"
           id="path24047"
           sodipodi:nodetypes="cccc" />
      </g>
      <path
         style="fill:#00ff00;fill-opacity:1;fill-rule:nonzero;stroke:none;stroke-width:2.79779;stroke-linecap:round;stroke-linejoin:bevel;stroke-miterlimit:4;stroke-dasharray:67.1472, 67.1472;stroke-dashoffset:0;stroke-opacity:1;paint-order:stroke fill markers"
         id="path17269"
         d="m 49.974928,196.0509 c -1.07336,1.75189 -1.94877,3.52212 -2.55916,5.3462 -0.68939,1.86682 -1.06992,3.70899 -1.00437,5.61597 0.44399,2.36159 2.07725,4.55227 3.52824,6.7536 1.95216,2.9739 4.44201,5.83167 8.4751,8.0406 6.82744,3.07089 15.70218,2.51028 23.87883,2.48151 14.34983,-0.18191 28.298702,-2.30146 42.371962,-3.62752 74.42004,-7.01233 -6.45008,1.68649 84.41294,-8.57749 0,0 0.16205,-0.0703 0.16205,-0.0703 v 0 c -16.19394,1.82945 -32.32624,3.8485 -48.58181,5.48835 -24.10644,2.43185 -48.54778,4.19624 -73.035362,4.57884 -7.46498,-0.27195 -15.29908,-0.36048 -21.58846,-2.97312 -4.19433,-2.17513 -6.60998,-4.7132 -8.39408,-7.78328 -1.26312,-2.20613 -2.4738,-4.45355 -2.844,-6.77657 -0.0995,-1.86318 0.33452,-3.65375 0.97577,-5.47931 0.61816,-1.85635 1.52348,-3.6821 3.15252,-5.33963 0,0 -8.95017,2.32217 -8.95017,2.32217 z" />
      <path
         style="fill:#00ff00;fill-opacity:1;fill-rule:nonzero;stroke:none;stroke-width:3.93535;stroke-linecap:round;stroke-linejoin:bevel;stroke-miterlimit:4;stroke-dasharray:94.4484, 94.4484;stroke-dashoffset:0;stroke-opacity:1;paint-order:stroke fill markers"
         id="path17271"
         d="m 40.593828,241.92211 c 13.93846,1.74357 27.86752,3.40151 41.87619,4.52321 3.63968,0.0829 7.28153,0.39663 10.91905,0.24843 11.326992,-0.46151 21.536482,-2.26961 32.700352,-4.5704 12.8774,-2.65392 33.1245,-7.72406 45.56726,-11.24871 8.16829,-2.31383 16.24435,-4.92919 24.36653,-7.39378 30.59156,-10.51539 15.77095,-5.05208 44.4954,-16.30233 0,0 0.17194,-0.13238 0.17194,-0.13238 v 0 c -28.72368,11.25122 -13.90343,5.78746 -44.49433,16.30367 -35.18501,10.67771 -71.41116,22.31354 -108.753372,19.62702 -12.81241,-1.34449 -25.94227,-2.59193 -38.12132,-6.94972 0,0 -8.7277,5.89499 -8.7277,5.89499 z" />
      <path
         style="fill:#00ff00;fill-opacity:1;fill-rule:nonzero;stroke:none;stroke-width:3.93535;stroke-linecap:round;stroke-linejoin:bevel;stroke-miterlimit:4;stroke-dasharray:94.4484, 94.4484;stroke-dashoffset:0;stroke-opacity:1;paint-order:stroke fill markers"
         id="path17273"
         d="m 71.096148,261.97197 c 16.33503,2.17073 32.781102,1.6598 49.182732,0.74906 32.29016,-3.8048 63.35983,-13.86769 93.29335,-26.02041 5.96081,-2.42003 11.82708,-5.05759 17.74061,-7.58639 5.36825,-2.79691 10.73651,-5.59383 16.10476,-8.39075 0,0 1.34279,-1.05792 1.34279,-1.05792 v 0 c -5.50782,2.91067 -11.01565,5.82135 -16.52347,8.73203 -6.04554,2.63223 -12.03793,5.3848 -18.13663,7.89669 -28.73862,11.83672 -58.76916,21.5164 -90.04607,23.71892 -14.82661,0.28209 -30.097332,0.61817 -44.421272,-3.76628 0,0 -8.5368,5.72505 -8.5368,5.72505 z" />
      <path
         style="fill:none;stroke:none;stroke-width:0.260306px;stroke-linecap:butt;stroke-linejoin:miter;stroke-opacity:1"
         d="m 1.7719107,157.99972 c 15.7638513,-10.82562 30.6656013,-5.47604 48.2421323,-7.19719 12.92728,-1.26588 36.616286,-6.87236 43.5258,6.65966 3.870429,7.58009 -9.954172,11.50326 -12.241631,15.98317 -0.641196,1.25576 -0.564876,2.82761 -1.360182,3.99579 -0.363973,0.53463 -2.510389,0.41123 -1.36018,2.66386 0.573503,1.12319 2.00902,1.61901 2.720362,2.66386 1.124733,1.65206 1.286607,3.92376 2.720363,5.32773 8.790308,8.60774 22.165475,4.60741 32.644355,6.65965 9.89037,1.937 18.38943,0.71165 28.56381,0 4.97465,-0.34795 9.9994,0.48596 14.96199,0 19.53075,-1.91251 39.02431,-5.45035 58.48778,-7.99158 39.36547,-5.13972 -14.24055,3.79395 23.12309,-6.65966 2.61569,-0.73182 5.45422,0.26507 8.16109,0 7.31391,-0.7162 5.52168,-2.69029 13.60182,-5.32772 5.71561,-1.86563 13.07604,-1.6901 19.04252,-2.66386 0.89446,-0.14599 1.90931,-0.39711 2.72036,0 0.40555,0.19855 0.0791,1.76909 0,1.33193 -0.92986,-5.13558 -1.70366,-10.2971 -2.55548,-15.44564"
         id="path26263" />
    </g>
  </g>
</svg>
